<svg viewBox="0 0 189 189" fill="none" xmlns="http://www.w3.org/2000/svg">
<path d="M167.682 170.623H164.74V154.149C178.861 144.146 188.275 127.672 188.275 108.843C188.275 69.422 147.677 41.7681 111.197 57.066C112.962 50.0054 110.609 43.5332 105.313 39.4145L102.371 28.8237L114.727 32.354V8.81875L102.371 12.349L105.902 -0.00695801H82.3665L85.8967 12.349L73.5408 8.81875V32.354L85.8967 28.8237L82.9548 39.4145C78.2478 43.5332 75.3059 50.0054 77.071 57.066C40.5914 41.7681 -0.00683594 69.422 -0.00683594 108.843C-0.00683594 127.672 9.40725 144.146 23.5284 154.149V170.623H20.5865C15.8794 170.623 11.7608 174.742 11.7608 179.449C11.7608 184.156 15.8794 188.275 20.5865 188.275H167.682C172.389 188.275 176.507 184.156 176.507 179.449C176.507 174.742 172.389 170.623 167.682 170.623ZM47.0636 164.74C43.5333 164.74 41.1798 162.386 41.1798 158.856C41.1798 155.326 43.5333 152.972 47.0636 152.972C50.5939 152.972 52.9474 155.326 52.9474 158.856C52.9474 162.386 50.0055 164.74 47.0636 164.74ZM70.5988 164.74C67.0686 164.74 64.715 162.386 64.715 158.856C64.715 155.326 67.0686 152.972 70.5988 152.972C74.1291 152.972 76.4827 155.326 76.4827 158.856C76.4827 162.386 73.5407 164.74 70.5988 164.74ZM76.4827 141.204H25.8819C17.0562 132.967 11.7608 121.788 11.7608 108.843C11.7608 75.8942 46.4752 54.7124 75.3059 69.422C75.8943 69.422 75.8943 70.0103 76.4827 70.0103V141.204ZM94.1341 14.7026C97.6644 14.7026 100.018 17.0561 100.018 20.5864C100.018 24.1166 97.6644 26.4702 94.1341 26.4702C90.6038 26.4702 88.2503 24.1166 88.2503 20.5864C88.2503 17.0561 90.6038 14.7026 94.1341 14.7026ZM94.1341 64.7149C97.6644 64.7149 100.018 67.0684 100.018 70.5987C100.018 74.129 97.6644 76.4825 94.1341 76.4825C90.6038 76.4825 88.2503 74.129 88.2503 70.5987C88.2503 67.0684 90.6038 64.7149 94.1341 64.7149ZM94.1341 105.902C97.6644 105.902 100.018 108.255 100.018 111.785C100.018 115.316 97.6644 117.669 94.1341 117.669C90.6038 117.669 88.2503 115.316 88.2503 111.785C88.2503 108.255 90.6038 105.902 94.1341 105.902ZM94.1341 164.74C90.6038 164.74 88.2503 162.386 88.2503 158.856C88.2503 155.326 90.6038 152.972 94.1341 152.972C97.6644 152.972 100.018 155.326 100.018 158.856C100.018 162.386 97.076 164.74 94.1341 164.74ZM117.669 164.74C114.139 164.74 111.785 162.386 111.785 158.856C111.785 155.326 114.139 152.972 117.669 152.972C121.2 152.972 123.553 155.326 123.553 158.856C123.553 162.386 120.611 164.74 117.669 164.74ZM141.205 164.74C137.674 164.74 135.321 162.386 135.321 158.856C135.321 155.326 137.674 152.972 141.205 152.972C144.735 152.972 147.088 155.326 147.088 158.856C147.088 162.386 144.146 164.74 141.205 164.74ZM111.785 141.204V70.0103C112.374 70.0103 112.374 69.422 112.962 69.422C141.793 54.7124 176.507 75.8942 176.507 108.843C176.507 121.788 171.212 132.967 162.386 141.204H111.785Z" fill="currentColor"/>
</svg>
