<svg viewBox="0 0 197 197" fill="none" xmlns="http://www.w3.org/2000/svg">
<g filter="url(#filter0_f_55_2555)">
<path d="M171.682 174.623H168.74V158.149C182.861 148.146 192.275 131.672 192.275 112.843C192.275 73.422 151.677 45.7681 115.197 61.066C116.962 54.0054 114.609 47.5332 109.313 43.4145L106.371 32.8237L118.727 36.354V12.8188L106.371 16.349L109.902 3.99304H86.3665L89.8967 16.349L77.5407 12.8188V36.354L89.8967 32.8237L86.9548 43.4145C82.2478 47.5332 79.3059 54.0054 81.071 61.066C44.5914 45.7681 3.99316 73.422 3.99316 112.843C3.99316 131.672 13.4073 148.146 27.5284 158.149V174.623H24.5865C19.8794 174.623 15.7608 178.742 15.7608 183.449C15.7608 188.156 19.8794 192.275 24.5865 192.275H171.682C176.389 192.275 180.507 188.156 180.507 183.449C180.507 178.742 176.389 174.623 171.682 174.623ZM51.0636 168.74C47.5333 168.74 45.1798 166.386 45.1798 162.856C45.1798 159.326 47.5333 156.972 51.0636 156.972C54.5939 156.972 56.9474 159.326 56.9474 162.856C56.9474 166.386 54.0055 168.74 51.0636 168.74ZM74.5988 168.74C71.0686 168.74 68.715 166.386 68.715 162.856C68.715 159.326 71.0686 156.972 74.5988 156.972C78.1291 156.972 80.4827 159.326 80.4827 162.856C80.4827 166.386 77.5407 168.74 74.5988 168.74ZM80.4827 145.204H29.8819C21.0562 136.967 15.7608 125.788 15.7608 112.843C15.7608 79.8942 50.4752 58.7124 79.3059 73.422C79.8943 73.422 79.8943 74.0103 80.4827 74.0103V145.204ZM98.1341 18.7026C101.664 18.7026 104.018 21.0561 104.018 24.5864C104.018 28.1167 101.664 30.4702 98.1341 30.4702C94.6038 30.4702 92.2503 28.1167 92.2503 24.5864C92.2503 21.0561 94.6038 18.7026 98.1341 18.7026ZM98.1341 68.7149C101.664 68.7149 104.018 71.0684 104.018 74.5987C104.018 78.129 101.664 80.4825 98.1341 80.4825C94.6038 80.4825 92.2503 78.129 92.2503 74.5987C92.2503 71.0684 94.6038 68.7149 98.1341 68.7149ZM98.1341 109.902C101.664 109.902 104.018 112.255 104.018 115.785C104.018 119.316 101.664 121.669 98.1341 121.669C94.6038 121.669 92.2503 119.316 92.2503 115.785C92.2503 112.255 94.6038 109.902 98.1341 109.902ZM98.1341 168.74C94.6038 168.74 92.2503 166.386 92.2503 162.856C92.2503 159.326 94.6038 156.972 98.1341 156.972C101.664 156.972 104.018 159.326 104.018 162.856C104.018 166.386 101.076 168.74 98.1341 168.74ZM121.669 168.74C118.139 168.74 115.785 166.386 115.785 162.856C115.785 159.326 118.139 156.972 121.669 156.972C125.2 156.972 127.553 159.326 127.553 162.856C127.553 166.386 124.611 168.74 121.669 168.74ZM145.205 168.74C141.674 168.74 139.321 166.386 139.321 162.856C139.321 159.326 141.674 156.972 145.205 156.972C148.735 156.972 151.088 159.326 151.088 162.856C151.088 166.386 148.146 168.74 145.205 168.74ZM115.785 145.204V74.0103C116.374 74.0103 116.374 73.422 116.962 73.422C145.793 58.7124 180.507 79.8942 180.507 112.843C180.507 125.788 175.212 136.967 166.386 145.204H115.785Z" fill="currentColor"/>
</g>
<defs>
<filter id="filter0_f_55_2555" x="-0.00683594" y="-0.00695801" width="196.282" height="196.282" filterUnits="userSpaceOnUse" color-interpolation-filters="sRGB">
<feFlood flood-opacity="0" result="BackgroundImageFix"/>
<feBlend mode="normal" in="SourceGraphic" in2="BackgroundImageFix" result="shape"/>
<feGaussianBlur stdDeviation="2" result="effect1_foregroundBlur_55_2555"/>
</filter>
</defs>
</svg>
